<?xml version="1.0" standalone="no"?>
<!DOCTYPE svg PUBLIC "-//W3C//DTD SVG 20010904//EN"
 "http://www.w3.org/TR/2001/REC-SVG-20010904/DTD/svg10.dtd">
<svg version="1.0" xmlns="http://www.w3.org/2000/svg"
 width="500.000000pt" height="500.000000pt" viewBox="0 0 500.000000 500.000000"
 preserveAspectRatio="xMidYMid meet">

<g transform="translate(0.000000,500.000000) scale(0.100000,-0.100000)"
fill="#000000" stroke="none">
<path d="M2575 4907 c-125 -60 -158 -114 -229 -373 -30 -109 -64 -224 -74
-254 -45 -129 -134 -272 -246 -395 l-54 -59 -81 73 c-158 142 -236 271 -351
581 -71 189 -104 247 -173 301 -147 117 -335 70 -419 -104 -51 -105 -60 -215
-28 -341 26 -102 63 -167 128 -227 70 -64 142 -87 216 -70 74 17 132 55 162
106 14 25 29 45 34 45 14 0 58 -76 148 -256 50 -99 113 -217 141 -263 28 -46
51 -88 51 -93 0 -5 -68 -141 -151 -303 l-151 -295 -651 -2 -652 -3 0 -890 0
-890 650 0 650 0 5 575 5 575 74 140 c40 77 150 286 244 465 93 179 171 327
173 329 4 4 318 -470 322 -487 4 -14 -11 -46 -421 -892 -345 -712 -344 -710
-318 -710 4 0 98 -43 207 -96 110 -53 253 -122 319 -154 291 -139 888 -427
1080 -520 116 -56 246 -119 290 -140 44 -21 187 -90 318 -154 l239 -115 90
187 c50 103 170 354 268 557 98 204 230 477 294 608 64 130 116 241 116 246 0
4 -201 105 -447 223 -247 119 -694 334 -995 478 l-547 264 -64 100 c-36 56
-131 207 -212 336 -81 129 -196 313 -256 407 -60 95 -109 176 -109 181 0 5 23
60 51 123 28 63 81 188 116 279 55 140 97 235 108 248 2 2 20 -14 40 -37 84
-92 206 -119 304 -65 122 66 191 203 191 379 0 173 -71 320 -184 377 -64 33
-159 35 -221 5z m188 -172 c61 -42 82 -93 82 -206 0 -89 -2 -99 -30 -144 -99
-160 -305 -102 -331 92 -12 94 44 217 119 263 46 29 113 26 160 -5z m-1495
-76 c80 -39 134 -136 135 -244 1 -79 -14 -117 -63 -159 -71 -59 -155 -58 -222
2 -59 53 -81 110 -82 207 -1 95 22 150 81 190 46 31 92 32 151 4z m-458 -2086
c0 -20 -147 -818 -161 -875 l-10 -38 -74 0 c-58 0 -75 3 -75 14 0 8 14 86 31
173 16 87 39 203 49 258 59 315 90 467 95 475 3 6 37 10 76 10 59 0 69 -3 69
-17z m410 -232 c0 -10 -3 -39 -6 -65 -6 -43 -9 -47 -30 -42 -33 9 -106 -10
-121 -30 -32 -44 1 -77 101 -99 42 -9 76 -22 76 -29 0 -20 49 -116 59 -116 6
0 20 18 31 40 23 45 36 49 72 20 52 -40 74 -137 47 -207 -38 -102 -187 -157
-360 -134 -84 11 -140 34 -176 73 -22 23 -58 97 -51 104 2 2 37 8 78 15 57 8
75 8 78 -1 2 -6 14 -23 27 -38 22 -25 30 -27 114 -30 85 -4 91 -3 115 22 31
30 32 46 9 75 -13 16 -52 30 -145 52 -145 35 -205 67 -231 122 -21 43 -22 128
-3 166 22 41 80 89 123 100 69 17 78 19 136 20 49 1 57 -1 57 -18z m1183 -70
c42 -19 77 -40 77 -47 0 -7 -52 -119 -116 -251 -132 -270 -144 -301 -144 -353
0 -50 38 -95 105 -126 82 -39 138 -28 193 36 7 8 71 133 142 278 77 156 134
262 143 262 26 0 157 -70 157 -84 0 -7 -60 -137 -134 -289 -104 -214 -143
-284 -176 -317 -102 -102 -245 -114 -406 -35 -175 85 -250 219 -210 374 18 70
271 595 284 589 4 -1 43 -18 85 -37z m-963 -86 c0 -8 -4 -15 -10 -15 -5 0 -7
7 -4 15 4 8 8 15 10 15 2 0 4 -7 4 -15z m1884 -360 c231 -114 296 -182 296
-307 0 -141 -87 -238 -232 -263 -27 -4 -38 -11 -38 -23 0 -9 13 -109 30 -222
16 -112 27 -206 24 -209 -3 -3 -47 16 -98 41 l-93 46 -17 174 c-23 230 -21
222 -62 241 -19 10 -37 17 -40 17 -2 0 -34 -60 -69 -132 -36 -73 -69 -141 -75
-150 -9 -16 -17 -14 -92 23 -46 21 -84 43 -86 47 -1 5 50 116 114 248 64 131
149 308 190 392 40 83 79 152 85 152 7 0 81 -34 163 -75z m729 -355 c4 -4 -62
-152 -147 -330 -86 -177 -156 -324 -156 -326 0 -2 70 -37 155 -78 85 -41 155
-79 155 -86 0 -8 -56 -128 -65 -138 -1 -1 -113 51 -249 117 l-246 120 23 53
c42 92 349 722 359 735 7 8 30 2 86 -24 42 -19 81 -39 85 -43z"/>
<path d="M3215 1580 c-25 -49 -45 -96 -45 -104 0 -20 95 -58 148 -59 39 0 49
4 74 32 39 44 41 100 5 140 -21 22 -114 81 -129 81 -4 0 -28 -40 -53 -90z"/>
</g>
</svg>
